<svg xmlns="http://www.w3.org/2000/svg" viewBox="0 0 360 360">
  <rect width="360" height="360" fill="#ffffff"/>
  <rect x="30" y="30" width="86" height="86" fill="#17223b"/>
  <rect x="244" y="30" width="86" height="86" fill="#17223b"/>
  <rect x="30" y="244" width="86" height="86" fill="#17223b"/>
  <rect x="52" y="52" width="42" height="42" fill="#ffffff"/>
  <rect x="266" y="52" width="42" height="42" fill="#ffffff"/>
  <rect x="52" y="266" width="42" height="42" fill="#ffffff"/>
  <g fill="#17223b">
    <rect x="148" y="34" width="28" height="28"/><rect x="190" y="34" width="18" height="48"/>
    <rect x="144" y="96" width="64" height="20"/><rect x="224" y="140" width="28" height="28"/>
    <rect x="270" y="150" width="48" height="18"/><rect x="140" y="148" width="54" height="54"/>
    <rect x="205" y="205" width="30" height="30"/><rect x="255" y="210" width="62" height="24"/>
    <rect x="144" y="254" width="24" height="64"/><rect x="188" y="268" width="44" height="20"/>
    <rect x="260" y="272" width="58" height="46"/>
  </g>
  <text x="180" y="184" text-anchor="middle" font-family="Arial, sans-serif" font-size="24" font-weight="800" fill="#ff9933">UPI</text>
</svg>
