<svg xmlns="http://www.w3.org/2000/svg" viewBox="0 0 1200 820" role="img" aria-label="Saranga BJP Paribar banner">
  <defs>
    <linearGradient id="bg" x1="0" x2="1"><stop stop-color="#fff0db"/><stop offset="1" stop-color="#eaf7ef"/></linearGradient>
    <linearGradient id="flag" x1="0" x2="1"><stop stop-color="#ff9933"/><stop offset="1" stop-color="#138a45"/></linearGradient>
  </defs>
  <rect width="1200" height="820" fill="url(#bg)"/>
  <path d="M0 650C220 570 380 700 590 625C800 550 980 555 1200 625V820H0Z" fill="#138a45" opacity=".16"/>
  <path d="M0 720C250 630 440 760 700 690C900 640 1050 665 1200 710V820H0Z" fill="#ff9933" opacity=".18"/>
  <rect x="160" y="190" width="18" height="390" rx="9" fill="#17223b"/>
  <path d="M178 196C315 130 435 248 570 180V375C430 442 315 322 178 390Z" fill="url(#flag)"/>
  <circle cx="452" cy="282" r="45" fill="#fff" opacity=".94"/>
  <path d="M452 244L463 276H497L469 295L481 328L452 307L424 328L436 295L408 276H442Z" fill="#17223b"/>
  <g fill="#17223b">
    <circle cx="345" cy="560" r="43"/>
    <circle cx="515" cy="530" r="50"/>
    <circle cx="690" cy="560" r="43"/>
    <circle cx="858" cy="535" r="48"/>
  </g>
  <g>
    <path d="M255 720C270 632 312 598 345 598C380 598 423 635 438 720Z" fill="#ff9933"/>
    <path d="M420 720C438 610 480 578 515 578C552 578 600 620 618 720Z" fill="#ff9933"/>
    <path d="M600 720C616 632 655 598 690 598C725 598 770 635 785 720Z" fill="#138a45"/>
    <path d="M770 720C790 614 825 582 858 582C895 582 945 624 962 720Z" fill="#138a45"/>
  </g>
  <rect x="245" y="700" width="760" height="36" rx="18" fill="#ffffff" opacity=".86"/>
  <text x="600" y="780" text-anchor="middle" font-family="Arial, sans-serif" font-size="46" font-weight="800" fill="#17223b">Saranga BJP Paribar</text>
</svg>
